<?xml version="1.0" encoding="utf-8"?>
<!-- Generator: Adobe Illustrator 26.1.0, SVG Export Plug-In . SVG Version: 6.00 Build 0)  -->
<svg version="1.1" id="Слой_1" xmlns="http://www.w3.org/2000/svg" xmlns:xlink="http://www.w3.org/1999/xlink" x="0px" y="0px"
	 viewBox="0 0 189 30" style="enable-background:new 0 0 189 30;" xml:space="preserve">
<style type="text/css">
	.st0{fill:#717272;}
	.st1{fill-rule:evenodd;clip-rule:evenodd;fill:url(#SVGID_1_);}
	.st2{fill-rule:evenodd;clip-rule:evenodd;fill:url(#SVGID_00000001630421414054022460000002997224807433272757_);}
	.st3{fill-rule:evenodd;clip-rule:evenodd;fill:url(#SVGID_00000114075784555994402820000009891089433690921856_);}
	.st4{fill-rule:evenodd;clip-rule:evenodd;fill:url(#SVGID_00000156565035825288556500000004597336147012935331_);}
	.st5{fill-rule:evenodd;clip-rule:evenodd;fill:url(#SVGID_00000131363544550899544470000015151553850756188853_);}
	.st6{fill-rule:evenodd;clip-rule:evenodd;fill:url(#SVGID_00000141425255814627188810000005756912955617063321_);}
	.st7{fill-rule:evenodd;clip-rule:evenodd;fill:url(#SVGID_00000002364463251415098880000012692594506989640866_);}
	.st8{fill-rule:evenodd;clip-rule:evenodd;fill:url(#SVGID_00000001624621478817260460000000904408989506110360_);}
	.st9{fill-rule:evenodd;clip-rule:evenodd;fill:url(#SVGID_00000066517107271666131660000005655053407121917101_);}
	.st10{fill-rule:evenodd;clip-rule:evenodd;fill:url(#SVGID_00000179607128036398335210000014948756553034451365_);}
	.st11{fill-rule:evenodd;clip-rule:evenodd;fill:url(#SVGID_00000038395980021382823510000000333665560750748830_);}
	.st12{fill-rule:evenodd;clip-rule:evenodd;fill:url(#SVGID_00000109748559792035158220000009460565423900019639_);}
	.st13{fill-rule:evenodd;clip-rule:evenodd;fill:url(#SVGID_00000097476331229744029410000006145699755478807217_);}
	.st14{fill-rule:evenodd;clip-rule:evenodd;fill:#7B9536;}
	.st15{fill-rule:evenodd;clip-rule:evenodd;fill:url(#SVGID_00000143575847639252303730000016096488050981906072_);}
	.st16{fill-rule:evenodd;clip-rule:evenodd;fill:url(#SVGID_00000113338448882470824740000011267092437060717479_);}
	.st17{fill-rule:evenodd;clip-rule:evenodd;fill:url(#SVGID_00000080926428463764676590000006039431131218752656_);}
	.st18{fill-rule:evenodd;clip-rule:evenodd;fill:url(#SVGID_00000003064395585049782760000018334642077845634208_);}
	.st19{fill-rule:evenodd;clip-rule:evenodd;fill:url(#SVGID_00000047030564355935938130000006061652101358459031_);}
	.st20{fill-rule:evenodd;clip-rule:evenodd;fill:url(#SVGID_00000135668313540838168610000016729979626740254117_);}
	.st21{fill-rule:evenodd;clip-rule:evenodd;fill:url(#SVGID_00000169540412049562494830000003789858426678363301_);}
	.st22{fill-rule:evenodd;clip-rule:evenodd;fill:url(#SVGID_00000047758248360999709180000003239732068133175970_);}
</style>
<path class="st0" d="M53.1,11c0.4-1.4,1-2.1,1.6-2.3h5.7c-0.8,0.5-1.4,1.4-1.7,2.7s-1.1,2.6-2.3,4l0.4,6.3h-5.7L50.7,17l-1.1,4.7H44
	l3-12.9h5.5l-1.1,4.9C52.1,13.3,52.7,12.4,53.1,11L53.1,11L53.1,11z M75.7,8.7l-3,12.9h-5.5l2.2-9.7h-0.9l-1.3,5.8
	c-0.2,1-0.8,1.9-1.8,2.6c-1,0.8-2.2,1.2-3.5,1.2c0,0-1.1,0-3.2,0l0.7-3.2c0.7,0,1.2,0,1.5-0.1c0.5-0.1,0.7-0.3,0.8-0.5
	s0.7-3.3,2.1-9.1L75.7,8.7L75.7,8.7L75.7,8.7z M81.8,21.6l1.2-5.2l-3.3,5.2H74l3-12.9h5.6l-1,4.4l2.9-4.4h6l-3,12.9H81.8z
	 M88.6,21.6l3-12.9h5.5l-1,4.3H97l1-4.3h5.5l-3,12.9H95l1.3-5.5h-0.9l-1.3,5.5H88.6L88.6,21.6z M109.6,21.6l1.2-5.2l-3.3,5.2h-5.7
	l3-12.9h5.6l-1,4.4l2.9-4.4h6l-3,12.9H109.6L109.6,21.6L109.6,21.6z M116.4,21.6l3-12.9h5.5l-1,4.3h0.9l1-4.3h5.5l-3,12.9h-5.5
	l1.3-5.5h-0.9l-1.3,5.5H116.4L116.4,21.6L116.4,21.6z M129.6,21.6l3-12.9h8.6l-0.7,3.1h-2.8l-2.3,9.8H129.6L129.6,21.6L129.6,21.6z
	 M150.3,16.9c-0.3,0-0.8,0-1.2,0c-0.5,0-1,0-1.5,0c-2.4,0-3.4-1-2.9-3l0.6-2.5c0.2-0.9,0.6-1.7,1.3-2.1c0.6-0.5,1.5-0.7,2.7-0.7h5.2
	c1.1,0,1.9,0.2,2.3,0.6c0.5,0.4,0.6,1,0.4,1.8l-1.9,8.1c-0.2,0.8-0.6,1.4-1.3,1.8s-1.5,0.7-2.6,0.7h-5.2c-1.1,0-1.9-0.2-2.3-0.7
	c-0.5-0.4-0.6-1-0.4-1.8l0.4-1.7h5.5l-0.1,0.5c-0.1,0.2,0,0.4,0,0.5c0.1,0.1,0.2,0.2,0.3,0.2s0.2-0.1,0.3-0.2s0.2-0.4,0.3-0.8
	L150.3,16.9L150.3,16.9L150.3,16.9z M150.5,12.3l-0.1,0.6c-0.1,0.5,0,0.7,0.3,0.7c0.1,0,0.3-0.1,0.4-0.2c0.1-0.1,0.2-0.3,0.3-0.6
	l0.1-0.5c0.1-0.5,0-0.7-0.3-0.7C150.8,11.6,150.6,11.9,150.5,12.3L150.5,12.3L150.5,12.3z M157,21.6l1.9-8.1h-1.1l1.1-4.8h6.6
	l-3,12.9H157L157,21.6z M164.8,21.6l1.9-8.1h-1.1l1.1-4.8h6.6l-3,12.9H164.8L164.8,21.6L164.8,21.6z"/>
<g id="_2616024535632">
	
		<linearGradient id="SVGID_1_" gradientUnits="userSpaceOnUse" x1="14.9" y1="1048.9551" x2="14.9" y2="1055.0132" gradientTransform="matrix(1 0 0 1 0 -1047.715)">
		<stop  offset="0" style="stop-color:#B9711C"/>
		<stop  offset="1" style="stop-color:#C6B211"/>
	</linearGradient>
	<polygon class="st1" points="14.3,2.3 15.4,1.2 15.5,7.3 14.4,5.5 	"/>
	
		<linearGradient id="SVGID_00000138564271163447985180000002731620359899349929_" gradientUnits="userSpaceOnUse" x1="9.6" y1="1049.7522" x2="9.6" y2="1056.3341" gradientTransform="matrix(1 0 0 1 0 -1047.715)">
		<stop  offset="0" style="stop-color:#82A128"/>
		<stop  offset="1" style="stop-color:#C6BC0C"/>
	</linearGradient>
	
		<polygon style="fill-rule:evenodd;clip-rule:evenodd;fill:url(#SVGID_00000138564271163447985180000002731620359899349929_);" points="
		7,3.1 8.1,2 12.2,8.6 9.4,7 	"/>
	
		<linearGradient id="SVGID_00000139294648253728297900000003989892180907061670_" gradientUnits="userSpaceOnUse" x1="3.85" y1="1052.1974" x2="3.85" y2="1056.925" gradientTransform="matrix(1 0 0 1 0 -1047.715)">
		<stop  offset="0" style="stop-color:#82A128"/>
		<stop  offset="1" style="stop-color:#C6BC0C"/>
	</linearGradient>
	<path style="fill-rule:evenodd;clip-rule:evenodd;fill:url(#SVGID_00000139294648253728297900000003989892180907061670_);" d="
		M4.2,5.6l1.1-1.1L3.5,8.1C3.1,8.5,2.7,8.8,2.4,9.2C3.1,7,3.8,6.1,4.2,5.6z"/>
	
		<linearGradient id="SVGID_00000083786709164683362540000001896190911146641339_" gradientUnits="userSpaceOnUse" x1="6.65" y1="1055.8322" x2="6.65" y2="1060.2543" gradientTransform="matrix(1 0 0 1 0 -1047.715)">
		<stop  offset="0" style="stop-color:#C0A411"/>
		<stop  offset="1" style="stop-color:#C6BB0C"/>
	</linearGradient>
	
		<polygon style="fill-rule:evenodd;clip-rule:evenodd;fill:url(#SVGID_00000083786709164683362540000001896190911146641339_);" points="
		2.4,9.2 3.5,8.1 10.9,12.3 8.2,12.5 	"/>
	
		<linearGradient id="SVGID_00000103965743439812247020000011638263501467718828_" gradientUnits="userSpaceOnUse" x1="5.6108" y1="1067.803" x2="9.6795" y2="1063.2379" gradientTransform="matrix(1 0 0 1 0 -1047.715)">
		<stop  offset="0" style="stop-color:#C4781A"/>
		<stop  offset="1" style="stop-color:#C8BC0A"/>
	</linearGradient>
	
		<polygon style="fill-rule:evenodd;clip-rule:evenodd;fill:url(#SVGID_00000103965743439812247020000011638263501467718828_);" points="
		3.2,18.8 4.3,17.7 12.1,16.8 11,17.9 	"/>
	
		<linearGradient id="SVGID_00000173123125784352796710000000017601827140081055_" gradientUnits="userSpaceOnUse" x1="3.15" y1="1060.4983" x2="3.15" y2="1066.4983" gradientTransform="matrix(1 0 0 1 0 -1047.715)">
		<stop  offset="0" style="stop-color:#C2761B"/>
		<stop  offset="1" style="stop-color:#C4781A"/>
	</linearGradient>
	<path style="fill-rule:evenodd;clip-rule:evenodd;fill:url(#SVGID_00000173123125784352796710000000017601827140081055_);" d="
		M2,13.9c0.4-0.4,0.7-0.7,1.1-1.1c0.3,1.8,0.8,3.4,1.2,4.9c-0.4,0.4-0.7,0.7-1.1,1.1C2.5,17.2,2.2,15.5,2,13.9L2,13.9z"/>
	
		<linearGradient id="SVGID_00000143578474057618115590000002338436072120343464_" gradientUnits="userSpaceOnUse" x1="6.0849" y1="1068.5331" x2="12.0267" y2="1067.1942" gradientTransform="matrix(1 0 0 1 0 -1047.715)">
		<stop  offset="0" style="stop-color:#C4781A"/>
		<stop  offset="1" style="stop-color:#C8BC0A"/>
	</linearGradient>
	
		<polygon style="fill-rule:evenodd;clip-rule:evenodd;fill:url(#SVGID_00000143578474057618115590000002338436072120343464_);" points="
		7.1,22.4 6,23.5 11,17.9 12.1,16.8 	"/>
	
		<linearGradient id="SVGID_00000073697158040534000820000012065561701076756136_" gradientUnits="userSpaceOnUse" x1="8.55" y1="1070.1267" x2="8.55" y2="1074.8752" gradientTransform="matrix(1 0 0 1 0 -1047.715)">
		<stop  offset="0" style="stop-color:#9E6136"/>
		<stop  offset="1" style="stop-color:#A16335"/>
	</linearGradient>
	<path style="fill-rule:evenodd;clip-rule:evenodd;fill:url(#SVGID_00000073697158040534000820000012065561701076756136_);" d="
		M6,23.5c0.4-0.4,0.7-0.7,1.1-1.1c1.2,1.3,2.6,2.4,4,3.6c-0.4,0.4-0.7,0.7-1.1,1.1C7.7,25.3,7.5,25.1,6,23.5z"/>
	
		<linearGradient id="SVGID_00000075856602998878646070000004640791882232975785_" gradientUnits="userSpaceOnUse" x1="14.7092" y1="1072.5876" x2="16.0471" y2="1072.5404" gradientTransform="matrix(1 0 0 1 0 -1047.715)">
		<stop  offset="0" style="stop-color:#C4781A"/>
		<stop  offset="1" style="stop-color:#C8BC0A"/>
	</linearGradient>
	
		<polygon style="fill-rule:evenodd;clip-rule:evenodd;fill:url(#SVGID_00000075856602998878646070000004640791882232975785_);" points="
		16,28.4 14.9,29.5 14.7,21.6 15.8,20.2 	"/>
	
		<linearGradient id="SVGID_00000040575641177196468810000000750564638473484445_" gradientUnits="userSpaceOnUse" x1="13.8914" y1="1076.6304" x2="16.9162" y2="1068.5109" gradientTransform="matrix(1 0 0 1 0 -1047.715)">
		<stop  offset="0" style="stop-color:#C4781A"/>
		<stop  offset="1" style="stop-color:#C8BC0A"/>
	</linearGradient>
	
		<polygon style="fill-rule:evenodd;clip-rule:evenodd;fill:url(#SVGID_00000040575641177196468810000000750564638473484445_);" points="
		16,28.4 14.9,29.5 14.7,21.6 15.8,20.2 	"/>
	
		<linearGradient id="SVGID_00000047751244697423139350000000733146356342135955_" gradientUnits="userSpaceOnUse" x1="17.8" y1="1076.0817" x2="17.8" y2="1077.7817" gradientTransform="matrix(1 0 0 1 0 -1047.715)">
		<stop  offset="0" style="stop-color:#D49024"/>
		<stop  offset="1" style="stop-color:#A7713F"/>
	</linearGradient>
	<path style="fill-rule:evenodd;clip-rule:evenodd;fill:url(#SVGID_00000047751244697423139350000000733146356342135955_);" d="
		M14.9,29.5c0.4-0.4,0.7-0.7,1.1-1.1c1.9,0.3,2.2,0.5,4.7,0.6c-0.3,0.3,0,0-1.1,1.1C17.2,30.1,16.5,29.8,14.9,29.5L14.9,29.5z"/>
	
		<linearGradient id="SVGID_00000006686326743425713170000008982981722916335240_" gradientUnits="userSpaceOnUse" x1="22.6" y1="1076.7909" x2="22.6" y2="1068.7909" gradientTransform="matrix(1 0 0 1 0 -1047.715)">
		<stop  offset="0" style="stop-color:#82A128"/>
		<stop  offset="1" style="stop-color:#C6BC0C"/>
	</linearGradient>
	
		<polygon style="fill-rule:evenodd;clip-rule:evenodd;fill:url(#SVGID_00000006686326743425713170000008982981722916335240_);" points="
		23.9,29.1 25,28 20.2,21.1 20.4,24 	"/>
	
		<linearGradient id="SVGID_00000098930733563950942180000014213730215234978438_" gradientUnits="userSpaceOnUse" x1="26.65" y1="1071.355" x2="26.65" y2="1066.876" gradientTransform="matrix(1 0 0 1 0 -1047.715)">
		<stop  offset="0" style="stop-color:#B9711C"/>
		<stop  offset="1" style="stop-color:#C6B211"/>
	</linearGradient>
	
		<polygon style="fill-rule:evenodd;clip-rule:evenodd;fill:url(#SVGID_00000098930733563950942180000014213730215234978438_);" points="
		28.8,23.6 29.9,22.5 23.4,19.2 25.2,21.8 	"/>
	<path class="st14" d="M23.9,29.1c0.3-0.4,0.7-0.7,1.1-1.1c2-1.2,1.9-1.1,2.8-2.1C27.8,25.9,26.2,28.1,23.9,29.1z"/>
	
		<linearGradient id="SVGID_00000114044521394860293600000014657446559758833320_" gradientUnits="userSpaceOnUse" x1="26.5487" y1="1071.3551" x2="26.7113" y2="1066.8761" gradientTransform="matrix(1 0 0 1 0 -1047.715)">
		<stop  offset="0" style="stop-color:#C4781A"/>
		<stop  offset="1" style="stop-color:#C8BC0A"/>
	</linearGradient>
	
		<polygon style="fill-rule:evenodd;clip-rule:evenodd;fill:url(#SVGID_00000114044521394860293600000014657446559758833320_);" points="
		29.9,22.5 28.8,23.6 25.2,21.8 23.4,19.2 	"/>
	
		<linearGradient id="SVGID_00000051367975653087094020000006023211985700404406_" gradientUnits="userSpaceOnUse" x1="27.2765" y1="1064.3129" x2="26.8169" y2="1062.4861" gradientTransform="matrix(1 0 0 1 0 -1047.715)">
		<stop  offset="0" style="stop-color:#C4781A"/>
		<stop  offset="1" style="stop-color:#C8BC0A"/>
	</linearGradient>
	
		<polygon style="fill-rule:evenodd;clip-rule:evenodd;fill:url(#SVGID_00000051367975653087094020000006023211985700404406_);" points="
		29.7,15 28.6,16.1 25.7,16.4 24.2,15.6 	"/>
	
		<linearGradient id="SVGID_00000176743529279582720670000007106786781895009165_" gradientUnits="userSpaceOnUse" x1="19.7437" y1="1055.5262" x2="22.2427" y2="1053.3157" gradientTransform="matrix(1 0 0 1 0 -1047.715)">
		<stop  offset="0" style="stop-color:#C6B51B"/>
		<stop  offset="1" style="stop-color:#BA843A"/>
	</linearGradient>
	
		<polygon style="fill-rule:evenodd;clip-rule:evenodd;fill:url(#SVGID_00000176743529279582720670000007106786781895009165_);" points="
		21.5,6 22.6,4.9 19.4,8.5 19.4,8.4 	"/>
	
		<linearGradient id="SVGID_00000158746018490858421420000009463273779412980104_" gradientUnits="userSpaceOnUse" x1="18.05" y1="1048.9551" x2="18.05" y2="1077.7667" gradientTransform="matrix(1 0 0 1 0 -1047.715)">
		<stop  offset="0" style="stop-color:#F08718"/>
		<stop  offset="8.627450e-02" style="stop-color:#F7BA0C"/>
		<stop  offset="0.2314" style="stop-color:#FFED00"/>
		<stop  offset="0.4627" style="stop-color:#FFED00"/>
		<stop  offset="0.7686" style="stop-color:#FFED00"/>
		<stop  offset="0.8706" style="stop-color:#F8BA0C"/>
		<stop  offset="1" style="stop-color:#F08718"/>
	</linearGradient>
	<path style="fill-rule:evenodd;clip-rule:evenodd;fill:url(#SVGID_00000158746018490858421420000009463273779412980104_);" d="
		M15.4,1.2C16.7,1.6,17.7,2,19,2.6L20.7,29c-1.7,0.2-3.1-0.2-4.7-0.6c0-0.3-0.3-7.8-0.3-8.1C15.8,11.9,15.4,9.6,15.4,1.2L15.4,1.2z"
		/>
	
		<linearGradient id="SVGID_00000080929155331549926260000000287874602771045306_" gradientUnits="userSpaceOnUse" x1="8.8283" y1="1049.249" x2="27.793" y2="1075.3516" gradientTransform="matrix(1 0 0 1 0 -1047.715)">
		<stop  offset="0" style="stop-color:#9ACC1C"/>
		<stop  offset="0.1255" style="stop-color:#CCDC0E"/>
		<stop  offset="0.2314" style="stop-color:#FFED00"/>
		<stop  offset="0.4627" style="stop-color:#FFED00"/>
		<stop  offset="0.7686" style="stop-color:#FFED00"/>
		<stop  offset="0.9176" style="stop-color:#B7D514"/>
		<stop  offset="1" style="stop-color:#6EBC28"/>
	</linearGradient>
	<path style="fill-rule:evenodd;clip-rule:evenodd;fill:url(#SVGID_00000080929155331549926260000000287874602771045306_);" d="
		M8.1,2c0.8-0.6,2.4-0.9,3.4-1L28,25.8c-0.8,0.7-0.5,0.7-1.4,1.3c-0.9,0.6-1.4,0.8-1.6,0.9C19.2,20.1,13.7,11.2,8.1,2L8.1,2z"/>
	
		<linearGradient id="SVGID_00000130629872850210659450000003659168896501581988_" gradientUnits="userSpaceOnUse" x1="3.2059" y1="1056.588" x2="32.3937" y2="1066.0718" gradientTransform="matrix(1 0 0 1 0 -1047.715)">
		<stop  offset="0" style="stop-color:#FECE00"/>
		<stop  offset="0.1255" style="stop-color:#FEDD00"/>
		<stop  offset="0.2314" style="stop-color:#FFED00"/>
		<stop  offset="0.4627" style="stop-color:#FFED00"/>
		<stop  offset="0.7686" style="stop-color:#FFED00"/>
		<stop  offset="0.8824" style="stop-color:#F9C20A"/>
		<stop  offset="1" style="stop-color:#F29614"/>
	</linearGradient>
	<path style="fill-rule:evenodd;clip-rule:evenodd;fill:url(#SVGID_00000130629872850210659450000003659168896501581988_);" d="
		M3.5,8.1c0.3-0.9,1.4-2.8,1.8-3.6L30.4,19c0,1-0.1,2.3-0.5,3.6c-0.3-0.1-5.8-3-6.1-3.2C16.9,15.8,16.1,15.3,3.5,8.1L3.5,8.1z"/>
	
		<linearGradient id="SVGID_00000021810902477104988100000002815312858536606611_" gradientUnits="userSpaceOnUse" x1="4.3222" y1="1065.5894" x2="28.997" y2="1057.572" gradientTransform="matrix(1 0 0 1 0 -1047.715)">
		<stop  offset="0" style="stop-color:#F08718"/>
		<stop  offset="0.1255" style="stop-color:#F7BA0C"/>
		<stop  offset="0.2314" style="stop-color:#FFED00"/>
		<stop  offset="0.4627" style="stop-color:#FFED00"/>
		<stop  offset="0.7686" style="stop-color:#FFED00"/>
		<stop  offset="0.8824" style="stop-color:#F8BA0C"/>
		<stop  offset="1" style="stop-color:#F08718"/>
	</linearGradient>
	<path style="fill-rule:evenodd;clip-rule:evenodd;fill:url(#SVGID_00000021810902477104988100000002815312858536606611_);" d="
		M4.3,17.7c-0.5-1.5-1-2.5-1.2-4.9l25-1.4c1.3,2.4,1.6,3.5,1.6,3.7C17.5,16.2,20.4,15.9,4.3,17.7z"/>
	
		<linearGradient id="SVGID_00000067210276294718683860000008139664061969918653_" gradientUnits="userSpaceOnUse" x1="9.3028" y1="1072.4458" x2="23.831" y2="1052.4495" gradientTransform="matrix(1 0 0 1 0 -1047.715)">
		<stop  offset="0" style="stop-color:#C87052"/>
		<stop  offset="0.2118" style="stop-color:#FFED00"/>
		<stop  offset="0.451" style="stop-color:#FFED00"/>
		<stop  offset="0.7686" style="stop-color:#FFED00"/>
		<stop  offset="0.8902" style="stop-color:#E8B822"/>
		<stop  offset="1" style="stop-color:#D18345"/>
	</linearGradient>
	<path style="fill-rule:evenodd;clip-rule:evenodd;fill:url(#SVGID_00000067210276294718683860000008139664061969918653_);" d="
		M11.1,26.1c-0.2-0.2-1.3-1.1-2.2-1.8c-0.7-0.5-1.6-1.6-1.8-1.9l12.3-14c1.5-1.5,1.4-1.5,3.1-3.5c0.7,0.5,2.5,2.3,3,2.9
		C20.4,14.6,16.9,18.8,11.1,26.1L11.1,26.1z"/>
</g>
</svg>
